<svg width="237" height="83" viewBox="0 0 237 83" fill="none" xmlns="http://www.w3.org/2000/svg">
<path d="M28 41H35V82H28V41Z" fill="#D9D9D9"/>
<path d="M99 41H104V69H99V41Z" fill="#D9D9D9"/>
<path d="M68 41H61V57.5H40.5V64H61V82H68V41Z" fill="#D9D9D9"/>
<path d="M127 41H122.164V52.2683H108V56.7073H122.164V69H127V41Z" fill="#D9D9D9"/>
<path d="M0 82H24.5V75.5H6.5V38.5L24.5 31.5V23.5L0 33V82Z" fill="#D9D9D9"/>
<path d="M28 37.5H35V9.5L83.5 28.5V75H71.5V82.5H91V23.5L28 0V37.5Z" fill="#D9D9D9"/>
<path fill-rule="evenodd" clip-rule="evenodd" d="M150 40C158.284 40 165 46.7157 165 55C165 63.2843 158.284 70 150 70H145C136.716 70 130 63.2843 130 55C130 46.7157 136.716 40 145 40H150ZM146 45C140.477 45 136 49.4772 136 55C136 60.5228 140.477 65 146 65H149C154.523 65 159 60.5228 159 55C159 49.4772 154.523 45 149 45H146Z" fill="#D9D9D9"/>
<path d="M164.5 69.5H170.5L176 52L184.644 67.9223C185.017 68.6109 186.002 68.6217 186.391 67.9414L195.5 52L201 69H206.5L198.5 40H195.5L185.5 61L176 40H173L164.5 69.5Z" fill="#D9D9D9"/>
<path d="M236.5 40.5H211.5V46H231V63.5H211.5V69.5H236.5V40.5Z" fill="#D9D9D9"/>
<path d="M212 52H228V57H212V52Z" fill="#D9D9D9"/>
</svg>
